<?xml version="1.0" encoding="utf-8"?>
<!-- Generator: Adobe Illustrator 17.0.0, SVG Export Plug-In . SVG Version: 6.00 Build 0)  -->
<!DOCTYPE svg PUBLIC "-//W3C//DTD SVG 1.1//EN" "http://www.w3.org/Graphics/SVG/1.1/DTD/svg11.dtd">
<svg version="1.1" xmlns="http://www.w3.org/2000/svg" xmlns:xlink="http://www.w3.org/1999/xlink" x="0px" y="0px"
	 width="139.308px" height="100px" viewBox="0 0 139.308 100" enable-background="new 0 0 139.308 100" xml:space="preserve">
<g id="Guides">
</g>
<g id="bkgd">
</g>
<g id="_x31_2_Col_Grid" display="none" opacity="0.1" enable-background="new    ">
</g>
<g id="nav">
</g>
<g id="content">
	<g>
		<g>
			<path fill="#231F20" d="M26.503,98.428c-0.198,0-0.399-0.019-0.599-0.064c-1.289-0.277-2.215-1.41-2.232-2.728l-0.449-34.486
				c-0.014-1.062,0.568-2.045,1.508-2.539L134.98,0.328c1.324-0.699,2.961-0.246,3.739,1.027c0.779,1.279,0.43,2.941-0.799,3.797
				L40.072,73.342L29.064,96.801C28.59,97.809,27.582,98.428,26.503,98.428z M28.905,62.805l0.267,20.441l6.099-12.996
				c0.211-0.449,0.536-0.836,0.944-1.119l60.562-42.205L28.905,62.805z"/>
		</g>
		<g>
			
				<rect x="36.237" y="75.654" transform="matrix(0.4314 0.9022 -0.9022 0.4314 103.0332 15.6907)" fill="#231F20" width="5.663" height="27.862"/>
		</g>
		<g>
			<path fill="#231F20" d="M67.12,100c-0.684,0-1.349-0.248-1.867-0.705L37.002,74.488l3.734-4.252l25.928,22.768l62.493-85.215
				L8.436,41.875l19.955,17.52l-3.735,4.254L0.788,42.691c-0.779-0.684-1.123-1.738-0.893-2.75c0.228-1.012,0.993-1.816,1.99-2.098
				L135.533,0.107c1.164-0.326,2.405,0.117,3.095,1.109c0.689,0.992,0.672,2.315-0.043,3.287L69.402,98.842
				c-0.469,0.643-1.186,1.055-1.976,1.141C67.324,99.994,67.223,100,67.12,100z"/>
		</g>
	</g>
</g>
<g id="sizes">
</g>
</svg>
