<?xml version="1.0" encoding="utf-8"?>
<!-- Generator: Adobe Illustrator 17.0.2, SVG Export Plug-In . SVG Version: 6.00 Build 0)  -->
<!DOCTYPE svg PUBLIC "-//W3C//DTD SVG 1.1//EN" "http://www.w3.org/Graphics/SVG/1.1/DTD/svg11.dtd">
<svg version="1.1" id="Layer_1" xmlns="http://www.w3.org/2000/svg" xmlns:xlink="http://www.w3.org/1999/xlink" x="0px" y="0px"
	 width="50px" height="50px" viewBox="0 0 50 50" enable-background="new 0 0 50 50" xml:space="preserve">
<g>
	<g id="XMLID_1_">
		<g>
			<g>
				<polygon fill="none" points="47.585,1.669 47.585,10.653 11.639,16.761 11.449,16.761 11.449,7.814 				"/>
			</g>
			<g>
				<path fill="none" d="M47.585,37.126c0,2.48-2.015,4.833-4.517,5.265c-2.493,0.422-4.517-1.249-4.517-3.728
					c0-2.48,2.023-4.833,4.517-5.265C45.57,32.976,47.585,34.647,47.585,37.126z"/>
			</g>
			<g>
				<path fill="none" d="M11.449,43.271c0,2.479-2.015,4.833-4.517,5.256c-2.493,0.422-4.517-1.241-4.517-3.72
					c0-2.479,2.023-4.842,4.517-5.263C9.435,39.12,11.449,40.792,11.449,43.271z"/>
			</g>
		</g>
		<path d="M10,6.627V38.6c-0.689-0.33-1.46-0.53-2.302-0.53c-0.33,0-0.668,0.029-1.003,0.086C3.502,38.696,1,41.618,1,44.807
			C1,47.767,3.222,50,6.168,50c0.33,0,0.667-0.028,1.001-0.085c2.948-0.498,5.301-3.024,5.647-5.915H13V17.981l33-5.659v20.067
			c-0.931-0.415-2.015-0.573-3.174-0.378c-3.192,0.552-5.691,3.474-5.691,6.652c0,2.965,2.223,5.201,5.172,5.201
			c0.329,0,0.664-0.028,1.004-0.086c2.894-0.499,5.213-2.953,5.619-5.778H49V0L10,6.627z M6.695,47.14
			c-1.611,0.27-2.864-0.759-2.864-2.332c0-1.794,1.529-3.57,3.339-3.876c0.179-0.03,0.357-0.046,0.529-0.046
			c1.243,0,2.14,0.806,2.302,1.998v0.713C9.83,45.271,8.395,46.852,6.695,47.14z M13,15.125V9.001l33-5.663v6.128L13,15.125z
			 M42.832,41.004c-1.617,0.267-2.865-0.763-2.865-2.341c0-1.788,1.532-3.564,3.339-3.878c0.178-0.029,0.355-0.045,0.526-0.045
			c1.036,0,1.836,0.556,2.168,1.43V38h0.037C45.644,39.458,44.341,40.743,42.832,41.004z"/>
	</g>
</g>
</svg>
