<?xml version="1.0" encoding="utf-8"?>
<!-- Generator: Adobe Illustrator 17.0.2, SVG Export Plug-In . SVG Version: 6.00 Build 0)  -->
<!DOCTYPE svg PUBLIC "-//W3C//DTD SVG 1.1//EN" "http://www.w3.org/Graphics/SVG/1.1/DTD/svg11.dtd">
<svg version="1.1" id="Layer_1" xmlns="http://www.w3.org/2000/svg" xmlns:xlink="http://www.w3.org/1999/xlink" x="0px" y="0px"
	 width="50px" height="50px" viewBox="0 0 50 50" enable-background="new 0 0 50 50" xml:space="preserve">
<g>
	<g>
		<path d="M24.994,50c-6.68,0-12.959-2.601-17.682-7.323c-9.75-9.747-9.75-25.607,0-35.355C12.035,2.601,18.315,0,24.994,0
			c6.679,0,12.959,2.601,17.682,7.322C47.399,12.044,50,18.322,50,25s-2.601,12.955-7.324,17.677C37.953,47.399,31.673,50,24.994,50
			z M24.994,2.83c-5.923,0-11.492,2.306-15.68,6.493c-8.646,8.644-8.646,22.709,0,31.353c4.189,4.187,9.757,6.494,15.68,6.494
			s11.492-2.307,15.68-6.494c4.188-4.188,6.495-9.755,6.495-15.676s-2.307-11.489-6.495-15.676
			C36.486,5.136,30.917,2.83,24.994,2.83z"/>
	</g>
	<g>
		<path d="M24.994,38.207c-3.529,0-6.846-1.374-9.341-3.868c-5.15-5.149-5.15-13.528,0-18.678c2.495-2.495,5.812-3.868,9.341-3.868
			s6.846,1.374,9.342,3.868c5.15,5.149,5.15,13.528,0,18.678C31.841,36.833,28.523,38.207,24.994,38.207z M24.994,14.622
			c-2.773,0-5.379,1.079-7.34,3.039c-4.047,4.046-4.047,10.63,0,14.676c1.961,1.96,4.567,3.039,7.34,3.039s5.379-1.079,7.34-3.039
			c4.047-4.046,4.047-10.63,0-14.676C30.374,15.702,27.767,14.622,24.994,14.622z"/>
	</g>
	<g>
		<g>
			<rect x="2.739" y="14.89" transform="matrix(0.8089 0.588 -0.588 0.8089 11.2714 -2.0658)" width="12.148" height="2.831"/>
		</g>
		<g>
			<rect x="10.225" y="7.408" transform="matrix(0.5882 0.8087 -0.8087 0.5882 13.8476 -9.5469)" width="12.147" height="2.831"/>
		</g>
		<g>
			<rect x="39.76" y="10.231" transform="matrix(0.588 0.8089 -0.8089 0.588 30.1525 -26.5872)" width="2.83" height="12.148"/>
		</g>
		<g>
			<rect x="32.275" y="2.75" transform="matrix(0.8089 0.588 -0.588 0.8089 11.6282 -18.124)" width="2.831" height="12.147"/>
		</g>
		<g>
			<rect x="7.398" y="27.62" transform="matrix(0.5882 0.8087 -0.8087 0.5882 30.8777 6.7472)" width="2.831" height="12.148"/>
		</g>
		<g>
			<rect x="14.883" y="35.102" transform="matrix(0.809 0.5878 -0.5878 0.809 27.3156 -1.7157)" width="2.831" height="12.147"/>
		</g>
		<g>
			<rect x="35.101" y="32.279" transform="matrix(0.8089 0.588 -0.588 0.8089 27.6806 -17.7703)" width="12.148" height="2.83"/>
		</g>
		<g>
			<rect x="27.617" y="39.76" transform="matrix(0.5882 0.8087 -0.8087 0.5882 47.1716 -10.2906)" width="12.147" height="2.831"/>
		</g>
	</g>
</g>
</svg>
