<?xml version="1.0" encoding="utf-8"?>
<!-- Generator: Adobe Illustrator 17.0.0, SVG Export Plug-In . SVG Version: 6.00 Build 0)  -->
<!DOCTYPE svg PUBLIC "-//W3C//DTD SVG 1.1//EN" "http://www.w3.org/Graphics/SVG/1.1/DTD/svg11.dtd">
<svg version="1.1" xmlns="http://www.w3.org/2000/svg" xmlns:xlink="http://www.w3.org/1999/xlink" x="0px" y="0px" width="100px"
	 height="100px" viewBox="0 0 100 100" enable-background="new 0 0 100 100" xml:space="preserve">
<g id="Guides">
</g>
<g id="bkgd">
</g>
<g id="_x31_2_Col_Grid" display="none" opacity="0.1" enable-background="new    ">
</g>
<g id="nav">
</g>
<g id="content">
	<g>
		<g>
			<g>
				<path fill="#FFFFFF" d="M2.83,73.256c0,1.047,0,2.76,0,3.807V96.09c0,1.047,0.666,1.371,1.481,0.725L18.08,85.852
					c0.815-0.646,2.332-1.178,3.369-1.178h47.688c1.038,0,1.887-0.857,1.887-1.904V34.102c0-1.047-0.849-1.902-1.887-1.902H4.717
					c-1.038,0-1.887,0.855-1.887,1.902V73.256z"/>
			</g>
			<g>
				<path d="M3.536,100L3.536,100C1.821,100,0,98.629,0,96.09V34.102c0-2.623,2.116-4.756,4.717-4.756h64.419
					c2.601,0,4.717,2.133,4.717,4.756V82.77c0,2.625-2.115,4.758-4.717,4.758H21.448c-0.396,0-1.305,0.318-1.618,0.566L6.064,99.055
					C5.283,99.674,4.41,100,3.536,100z M5.66,35.053v57.051l10.666-8.494c1.31-1.037,3.461-1.791,5.122-1.791h46.744V35.053H5.66z"
					/>
			</g>
		</g>
		<g>
			<g>
				<path fill="#FFFFFF" d="M97.17,43.912c0,1.047,0,2.76,0,3.807v19.027c0,1.045-0.666,1.371-1.48,0.725L81.92,56.508
					c-0.814-0.646-2.331-1.178-3.368-1.178H30.864c-1.037,0-1.887-0.857-1.887-1.904V4.758c0-1.047,0.85-1.902,1.887-1.902h64.419
					c1.038,0,1.887,0.855,1.887,1.902V43.912z"/>
			</g>
			<g>
				<path d="M96.464,70.656c-0.874,0-1.747-0.326-2.525-0.943L80.166,58.748c-0.31-0.246-1.218-0.564-1.614-0.564H30.864
					c-2.602,0-4.717-2.133-4.717-4.758V4.758C26.147,2.135,28.263,0,30.864,0h64.419C97.884,0,100,2.135,100,4.758v61.988
					C100,69.285,98.179,70.656,96.464,70.656z M31.808,52.475h46.744c1.66,0,3.812,0.754,5.118,1.789l10.67,8.496V5.709H31.808
					V52.475z"/>
			</g>
		</g>
	</g>
</g>
<g id="sizes">
</g>
</svg>
