<?xml version="1.0" encoding="utf-8"?>
<!-- Generator: Adobe Illustrator 17.0.0, SVG Export Plug-In . SVG Version: 6.00 Build 0)  -->
<!DOCTYPE svg PUBLIC "-//W3C//DTD SVG 1.1//EN" "http://www.w3.org/Graphics/SVG/1.1/DTD/svg11.dtd">
<svg version="1.1" xmlns="http://www.w3.org/2000/svg" xmlns:xlink="http://www.w3.org/1999/xlink" x="0px" y="0px" width="100px"
	 height="100px" viewBox="0 0 100 100" enable-background="new 0 0 100 100" xml:space="preserve">
<g id="Guides">
</g>
<g id="bkgd">
</g>
<g id="_x31_2_Col_Grid" display="none" opacity="0.1" enable-background="new    ">
</g>
<g id="nav">
</g>
<g id="content">
	<g>
		<g>
			<path fill="none" stroke="#000000" stroke-width="3" stroke-miterlimit="10" d="M50.001,50"/>
		</g>
		<g>
			<path d="M94.39,5.611v88.777H5.61V5.611H94.39 M100,0h-5.61H5.61H0v5.611v88.777V100h5.61H94.39H100v-5.611V5.611V0L100,0z"/>
		</g>
		<g>
			<g>
				<rect x="21.966" y="29.137" width="5.61" height="67.217"/>
			</g>
			<g>
				<rect x="47.195" y="29.137" width="5.611" height="67.217"/>
			</g>
			<g>
				<rect x="72.424" y="29.137" width="5.61" height="67.217"/>
			</g>
		</g>
		<g>
			<g>
				<rect x="21.966" y="3.658" width="5.61" height="9.508"/>
			</g>
			<g>
				<rect x="72.424" y="3.658" width="5.61" height="9.508"/>
			</g>
		</g>
		<g>
			<g>
				<rect x="3.1" y="26.432" width="93.511" height="5.609"/>
			</g>
			<g>
				<rect x="3.1" y="49.631" width="93.511" height="5.611"/>
			</g>
			<g>
				<rect x="3.1" y="72.832" width="93.511" height="5.609"/>
			</g>
		</g>
	</g>
</g>
<g id="sizes">
</g>
</svg>
