<?xml version="1.0" encoding="utf-8"?>
<!-- Generator: Adobe Illustrator 17.0.0, SVG Export Plug-In . SVG Version: 6.00 Build 0)  -->
<!DOCTYPE svg PUBLIC "-//W3C//DTD SVG 1.1//EN" "http://www.w3.org/Graphics/SVG/1.1/DTD/svg11.dtd">
<svg version="1.1" xmlns="http://www.w3.org/2000/svg" xmlns:xlink="http://www.w3.org/1999/xlink" x="0px" y="0px"
	 width="82.018px" height="100px" viewBox="0 0 82.018 100" enable-background="new 0 0 82.018 100" xml:space="preserve">
<g id="Guides">
</g>
<g id="bkgd">
</g>
<g id="_x31_2_Col_Grid" display="none" opacity="0.1" enable-background="new    ">
</g>
<g id="nav">
</g>
<g id="content">
	<g>
		<path d="M5.651,100C2.93,100,0,97.959,0,93.473V6.527C0,2.041,2.93,0,5.651,0c1.292,0,2.607,0.412,3.91,1.225l68.99,43.119
			c2.203,1.379,3.467,3.439,3.467,5.656s-1.264,4.277-3.467,5.656L9.562,98.775C8.259,99.588,6.943,100,5.651,100z M5.968,6.018
			c-0.023,0.129-0.039,0.297-0.039,0.51v86.945c0,0.213,0.017,0.381,0.039,0.51c0.121-0.049,0.273-0.125,0.454-0.236l68.987-43.119
			c0.503-0.312,0.666-0.582,0.684-0.652c-0.018-0.02-0.181-0.289-0.683-0.602L6.421,6.254C6.241,6.141,6.089,6.064,5.968,6.018z"/>
	</g>
</g>
<g id="sizes">
</g>
</svg>
