<?xml version="1.0" encoding="utf-8"?>
<!-- Generator: Adobe Illustrator 17.0.2, SVG Export Plug-In . SVG Version: 6.00 Build 0)  -->
<!DOCTYPE svg PUBLIC "-//W3C//DTD SVG 1.1//EN" "http://www.w3.org/Graphics/SVG/1.1/DTD/svg11.dtd">
<svg version="1.1" id="Layer_1" xmlns="http://www.w3.org/2000/svg" xmlns:xlink="http://www.w3.org/1999/xlink" x="0px" y="0px"
	 width="50px" height="50px" viewBox="0 0 50 50" enable-background="new 0 0 50 50" xml:space="preserve">
<g>
	<g>
		<path d="M25,32.954c-7.402,0-13.423-6.27-13.423-13.978C11.577,11.27,17.598,5,25,5s13.423,6.27,13.423,13.977
			C38.423,26.684,32.402,32.954,25,32.954z M25,7.963c-5.841,0-10.593,4.941-10.593,11.014c0,6.073,4.752,11.015,10.593,11.015
			s10.593-4.941,10.593-11.015C35.593,12.904,30.841,7.963,25,7.963z"/>
	</g>
	<g>
		<path d="M9.443,43.931l-2.604-1.159C9.931,35.159,17.06,30.24,25,30.24c7.644,0,14.665,4.665,17.888,11.885l-2.565,1.254
			C37.564,37.197,31.549,33.203,25,33.203C18.197,33.203,12.091,37.414,9.443,43.931z"/>
	</g>
	<g>
		<path d="M42.366,32.908c-3.883,0-7.042-3.291-7.042-7.336c0-4.046,3.159-7.337,7.042-7.337c3.882,0,7.041,3.291,7.041,7.337
			C49.408,29.617,46.249,32.908,42.366,32.908z M42.366,21.198c-2.323,0-4.212,1.962-4.212,4.374c0,2.411,1.89,4.373,4.212,4.373
			c2.322,0,4.211-1.962,4.211-4.373C46.577,23.16,44.688,21.198,42.366,21.198z"/>
	</g>
	<g>
		<polygon points="50,45 1.415,45 1.415,42.037 47.17,42.037 47.17,36.684 50,36.684 		"/>
	</g>
	<g>
		<path d="M48.585,37.958H47.17V35.26c-1.18-1.481-2.944-2.352-4.804-2.352c-2.205,0-4.266,1.23-5.378,3.209l-2.44-1.503
			c1.62-2.88,4.615-4.669,7.818-4.669c2.913,0,5.667,1.475,7.366,3.945c0.173,0.252,0.266,0.554,0.266,0.864L50,37.957
			L48.585,37.958z"/>
	</g>
	<g>
		<path d="M7.634,32.908c-3.883,0-7.041-3.291-7.041-7.336c0-4.046,3.159-7.337,7.041-7.337c3.883,0,7.042,3.291,7.042,7.337
			C14.676,29.617,11.517,32.908,7.634,32.908z M7.634,21.198c-2.322,0-4.211,1.962-4.211,4.374c0,2.411,1.889,4.373,4.211,4.373
			c2.323,0,4.212-1.962,4.212-4.373C11.846,23.16,9.956,21.198,7.634,21.198z"/>
	</g>
	<g>
		<polygon points="48.585,45 0,45 0,36.684 2.83,36.684 2.83,42.037 48.585,42.037 		"/>
	</g>
	<g>
		<path d="M2.83,37.959L0,37.958v-3.203c0-0.311,0.094-0.614,0.267-0.866c1.701-2.469,4.454-3.944,7.367-3.944
			c3.203,0,6.198,1.789,7.818,4.669l-2.44,1.503c-1.113-1.979-3.174-3.209-5.378-3.209c-1.86,0-3.624,0.872-4.802,2.352L2.83,37.959
			z"/>
	</g>
</g>
</svg>
