<?xml version="1.0" encoding="utf-8"?>
<!-- Generator: Adobe Illustrator 17.0.2, SVG Export Plug-In . SVG Version: 6.00 Build 0)  -->
<!DOCTYPE svg PUBLIC "-//W3C//DTD SVG 1.1//EN" "http://www.w3.org/Graphics/SVG/1.1/DTD/svg11.dtd">
<svg version="1.1" id="Layer_1" xmlns="http://www.w3.org/2000/svg" xmlns:xlink="http://www.w3.org/1999/xlink" x="0px" y="0px"
	 width="62px" height="50px" viewBox="0 0 62 50" enable-background="new 0 0 62 50" xml:space="preserve">
<g>
	<g>
		<polygon points="14.868,50 0,35.087 1.957,33.125 14.109,45.313 27.62,18.211 41.13,31.763 53.782,6.382 56.257,7.623 
			41.888,36.449 28.378,22.898 		"/>
	</g>
	<g>
		<path d="M55.02,14.004c-3.849,0-6.981-3.141-6.981-7.002C48.039,3.141,51.17,0,55.02,0C58.868,0,62,3.141,62,7.003
			C62,10.864,58.868,14.004,55.02,14.004z M55.02,2.776c-2.323,0-4.213,1.896-4.213,4.227c0,2.33,1.89,4.226,4.213,4.226
			c2.323,0,4.213-1.895,4.213-4.226C59.232,4.672,57.342,2.776,55.02,2.776z"/>
	</g>
	<g>
		<path d="M52.484,13.476c-0.208,0-0.419-0.047-0.618-0.147c-0.683-0.343-0.96-1.177-0.619-1.862l2.535-5.085
			c0.342-0.685,1.172-0.962,1.857-0.621c0.684,0.343,0.96,1.177,0.619,1.862l-2.535,5.085C53.48,13.195,52.991,13.476,52.484,13.476
			z"/>
	</g>
</g>
</svg>
